<svg xmlns="http://www.w3.org/2000/svg" viewBox="915 237.78 8970 12680">
	<path d="M 1505 6521 c -33 -10 -93 -34 -134 -55 c -41 -21 -101 -43 -133 -50 l -58 -12 l 29 -32 c 16 -17 32 -40 36 -51 c 3 -10 12 -22 20 -25 c 8 -3 15 -11 15 -18 c 0 -19 61 -83 95 -100 c 17 -8 39 -19 50 -25 c 11 -6 76 -39 145 -74 c 184 -92 219 -111 285 -154 c 33 -22 67 -44 76 -50 c 68 -44 104 -68 160 -107 c 21 -16 41 -28 45 -28 c 3 0 32 -20 64 -45 c 32 -25 63 -45 68 -45 c 5 0 15 -6 21 -13 c 6 -8 30 -23 53 -34 c 24 -11 73 -34 109 -51 c 36 -18 70 -32 75 -32 c 5 -1 27 -9 49 -20 c 22 -11 48 -19 58 -20 c 10 0 29 -7 42 -16 c 13 -9 57 -20 97 -25 c 39 -5 76 -13 82 -19 c 5 -5 25 -10 44 -10 c 32 0 74 -15 134 -46 c 14 -8 32 -14 40 -14 c 7 0 49 -18 92 -40 c 43 -22 85 -40 91 -40 c 7 0 40 -13 73 -30 c 69 -34 118 -37 293 -19 c 77 7 110 7 133 -2 c 35 -13 124 -55 146 -68 c 8 -5 44 -24 80 -42 c 86 -42 116 -64 133 -97 c 22 -43 41 -77 49 -82 c 12 -10 58 -81 58 -90 c 0 -6 -16 -10 -35 -10 c -49 0 -46 -26 8 -50 c 23 -11 49 -24 57 -29 c 8 -5 22 -12 30 -15 c 8 -3 22 -10 30 -15 c 8 -5 26 -14 40 -20 c 14 -6 32 -15 40 -20 c 39 -24 287 -141 298 -141 c 6 0 12 -4 12 -9 c 0 -5 9 -12 19 -16 c 11 -3 32 -26 48 -52 c 15 -25 33 -53 38 -62 c 41 -65 98 -131 114 -131 c 3 0 20 -14 38 -30 c 18 -17 34 -30 37 -30 c 4 0 15 -8 25 -17 c 11 -10 47 -38 80 -63 c 103 -77 88 -92 -35 -35 c -41 19 -78 35 -83 35 c -5 0 -14 7 -21 15 c -7 8 -23 15 -35 15 c -12 0 -27 6 -33 13 c -6 6 -33 21 -61 32 c -61 23 -73 35 -150 140 c -65 89 -125 155 -139 155 c -5 0 -23 7 -38 15 c -16 8 -36 15 -45 15 c -9 0 -22 7 -29 15 c -7 8 -20 15 -29 15 c -9 0 -27 9 -41 20 c -14 11 -34 20 -44 20 c -11 0 -27 6 -35 13 c -9 7 -36 20 -61 27 c -25 8 -57 22 -72 32 c -34 24 -87 24 -94 1 c -3 -10 -9 -25 -14 -33 c -5 -8 -17 -30 -26 -47 c -9 -18 -20 -33 -25 -33 c -5 0 -9 -16 -9 -35 c 0 -28 10 -45 50 -87 c 28 -29 50 -58 50 -64 c 0 -7 5 -14 12 -16 c 19 -7 -1 -28 -27 -28 c -13 0 -26 -4 -29 -9 c -3 -4 -29 -11 -57 -14 c -64 -8 -86 -26 -94 -80 c -4 -23 -11 -46 -15 -52 c -4 -5 -19 -43 -32 -82 l -25 -73 l 45 -30 c 25 -16 60 -32 79 -36 c 18 -3 36 -10 39 -15 c 3 -5 12 -9 21 -9 c 8 0 29 -6 46 -13 c 49 -21 99 -38 127 -44 c 14 -3 34 -12 45 -19 c 11 -8 31 -14 45 -14 c 14 0 34 -7 44 -15 c 11 -8 43 -22 73 -30 c 47 -14 176 -93 238 -145 c 11 -9 28 -20 38 -23 c 21 -8 23 -27 2 -27 c -8 0 -31 7 -52 16 c -21 9 -54 23 -73 31 c -19 8 -48 21 -63 29 c -16 8 -36 14 -46 14 c -9 0 -26 7 -37 15 c -10 8 -28 15 -39 15 c -12 0 -25 4 -30 9 c -6 5 -25 12 -42 16 c -26 5 -33 3 -33 -9 c 0 -8 10 -21 22 -27 c 12 -6 31 -21 42 -31 c 12 -11 37 -32 56 -47 c 19 -14 41 -34 48 -43 c 7 -10 17 -18 22 -18 c 5 0 30 -19 55 -42 c 54 -49 92 -61 245 -78 c 58 -6 125 -18 150 -26 c 25 -8 87 -19 138 -24 c 51 -6 102 -14 112 -20 c 28 -15 116 -12 129 4 c 7 8 27 17 46 20 c 19 4 35 11 35 16 c 0 5 17 14 38 21 c 20 6 48 17 62 25 c 14 7 55 27 93 44 c 37 17 67 37 67 45 c 0 8 6 18 13 22 c 8 4 22 24 33 43 c 10 19 21 37 24 40 c 14 14 30 52 30 70 c 0 12 -9 40 -20 62 c -21 43 -27 107 -11 124 c 4 5 14 38 21 74 c 8 36 19 79 26 95 c 13 34 11 42 -29 102 c -29 45 -32 63 -18 91 c 5 9 18 36 30 58 c 11 23 21 49 21 58 c 0 19 -37 138 -56 183 c -8 17 -14 36 -14 42 c 0 6 -4 20 -10 31 c -5 11 -15 29 -20 40 c -6 12 -15 40 -19 63 c -5 23 -19 67 -31 97 c -12 30 -28 77 -36 104 c -7 26 -18 54 -24 61 c -27 33 -261 25 -330 -10 c -29 -15 -30 -18 -30 -85 c 0 -38 -4 -72 -10 -75 c -12 -7 -21 14 -50 115 c -12 41 -28 95 -36 120 c -8 25 -14 55 -14 66 c 0 43 -23 48 -102 20 c -40 -13 -74 -23 -77 -20 c -7 7 58 64 73 64 c 7 0 19 7 26 15 c 7 8 23 15 35 15 c 12 0 28 7 35 15 c 7 8 22 15 34 15 c 12 0 32 7 44 16 c 32 22 140 12 297 -27 c 22 -6 47 -10 55 -10 c 18 0 118 18 180 32 c 90 21 108 21 132 5 c 12 -9 29 -16 38 -16 c 8 0 42 -13 75 -29 c 86 -42 131 -61 145 -61 c 7 0 24 -8 38 -18 c 15 -10 54 -28 87 -41 c 33 -13 88 -36 121 -52 c 34 -16 70 -29 82 -29 c 11 0 25 -7 32 -15 c 7 -8 19 -15 27 -15 c 8 0 27 -8 41 -19 c 15 -10 43 -22 62 -26 c 37 -8 112 -31 145 -44 c 26 -11 121 -37 165 -46 c 35 -7 47 -18 138 -124 c 26 -30 76 -86 111 -125 c 35 -39 86 -99 114 -132 c 27 -34 65 -70 85 -80 c 21 -11 41 -25 45 -32 c 5 -8 28 -22 50 -33 c 54 -25 82 -42 104 -61 c 10 -8 25 -18 33 -22 c 8 -3 38 -20 65 -36 c 28 -16 65 -38 83 -47 c 17 -9 32 -20 32 -25 c 0 -4 6 -8 14 -8 c 8 0 28 -11 44 -25 c 17 -14 35 -25 40 -25 c 6 0 17 -6 24 -12 c 7 -7 31 -22 53 -33 c 22 -11 44 -25 48 -32 c 4 -7 13 -13 18 -13 c 6 0 25 -10 42 -23 c 41 -29 63 -41 115 -67 c 23 -12 42 -25 42 -30 c 0 -4 12 -11 26 -14 c 14 -4 34 -15 43 -24 c 26 -26 61 -91 61 -114 c 0 -11 6 -34 13 -51 c 14 -33 71 -212 83 -257 c 10 -38 167 -190 197 -190 c 17 0 27 -7 32 -22 c 11 -34 47 -207 65 -318 c 6 -36 16 -80 22 -99 c 5 -18 14 -65 19 -103 c 5 -38 15 -83 22 -101 c 8 -18 22 -84 31 -147 c 10 -63 20 -129 23 -146 c 5 -32 2 -37 -92 -135 c -8 -9 -15 -19 -15 -23 c 0 -5 -13 -21 -30 -36 c -32 -30 -36 -55 -19 -110 c 6 -19 15 -53 19 -75 c 5 -22 13 -60 19 -85 c 7 -25 19 -76 28 -115 c 19 -85 23 -92 35 -71 c 5 9 13 16 18 16 c 5 0 24 14 42 30 c 37 35 45 36 96 14 c 66 -28 89 -22 141 33 c 37 39 59 54 97 63 c 74 18 144 24 144 11 c 0 -6 8 -11 18 -11 c 9 0 30 -7 46 -15 c 33 -17 40 -14 101 44 c 43 41 47 43 93 38 c 26 -3 61 -9 78 -12 c 39 -9 45 1 33 51 c -6 21 -19 86 -30 142 c -11 57 -26 120 -34 139 c -8 20 -15 46 -15 59 c 0 17 -10 29 -40 44 c -21 11 -46 20 -54 20 c -8 0 -27 7 -43 15 c -15 8 -48 20 -72 26 c -53 13 -91 48 -91 86 c 0 15 -7 41 -15 57 c -8 15 -15 36 -15 44 c 0 19 -38 149 -50 172 c -4 9 -11 36 -15 60 c -4 25 -11 50 -15 55 c -4 6 -13 34 -19 64 c -6 30 -17 68 -25 85 c -13 30 -22 61 -50 174 c -16 62 -5 82 44 82 c 24 0 30 6 44 49 c 20 62 20 80 0 120 c -13 25 -15 49 -10 109 c 5 49 3 90 -5 112 c -6 19 -15 58 -20 85 c -17 108 -28 157 -38 168 c -5 7 -11 23 -13 37 c -3 23 -48 53 -133 87 c -136 53 -142 59 -151 124 c -4 27 -10 49 -15 49 c -4 0 -11 21 -15 48 c -3 26 -15 64 -24 85 c -10 20 -21 56 -25 78 c -4 22 -13 53 -21 67 c -8 15 -14 39 -14 55 c 0 15 -9 46 -19 70 c -19 41 -24 61 -40 142 c -4 22 -13 50 -19 62 c -7 12 -12 32 -12 45 c 0 13 -9 41 -20 63 c -11 22 -20 51 -20 65 c 0 14 -7 38 -15 54 c -8 15 -15 36 -15 46 c 0 10 -14 60 -30 110 c -17 51 -33 109 -36 129 c -10 58 -37 106 -59 104 c -56 -5 -146 -23 -165 -33 c -19 -10 -21 -17 -15 -48 c 4 -21 11 -59 15 -87 c 25 -154 33 -195 47 -245 c 8 -30 19 -84 24 -119 c 5 -36 13 -69 19 -75 c 5 -5 10 -30 10 -54 c 0 -24 6 -70 14 -101 c 8 -31 18 -82 21 -113 c 7 -54 6 -58 -13 -58 c -11 0 -26 10 -35 23 c -8 12 -36 43 -61 70 c -25 26 -46 49 -46 51 c 0 2 -21 26 -47 54 c -62 65 -103 111 -103 116 c 0 2 -19 24 -42 48 c -44 45 -173 185 -228 248 c -75 85 -153 160 -173 166 c -30 9 -117 65 -117 76 c 0 4 -7 8 -15 8 c -8 0 -48 23 -89 50 c -41 28 -79 50 -85 50 c -5 0 -14 6 -18 14 c -4 7 -32 26 -60 41 c -29 15 -63 38 -75 51 c -13 13 -27 24 -31 24 c -4 0 -18 9 -30 21 c -29 28 -165 131 -188 144 c -11 5 -19 13 -19 16 c 0 13 -146 118 -173 124 c -15 4 -30 11 -33 16 c -3 5 -13 9 -22 9 c -10 0 -34 9 -55 20 c -20 11 -53 20 -73 20 c -19 0 -55 5 -79 11 c -65 16 -76 6 -21 -20 c 46 -23 66 -45 52 -58 c -3 -4 -50 -13 -104 -20 c -53 -7 -126 -17 -162 -22 c -36 -5 -76 -14 -90 -19 c -14 -5 -58 -13 -98 -17 c -68 -7 -74 -6 -70 11 c 2 10 17 25 33 33 c 17 8 37 18 45 23 c 8 4 26 13 40 19 c 14 6 38 17 53 25 c 16 8 34 14 40 14 c 7 0 18 9 25 20 c 11 17 9 20 -16 26 c -15 4 -34 12 -42 19 c -8 6 -58 26 -110 44 c -168 57 -449 202 -553 284 l -36 28 l -79 -55 c -197 -138 -492 -268 -697 -307 c -246 -46 -609 -42 -855 11 c -92 19 -315 92 -465 151 c -27 11 -102 39 -165 62 l -115 43 l -3 -63 c -3 -62 -3 -63 -32 -63 c -23 0 -30 5 -30 20 c 0 11 -9 37 -20 57 c -11 21 -20 45 -20 54 c 0 15 -18 26 -110 68 c -91 41 -587 173 -755 201 c -38 6 -92 15 -118 21 c -83 16 -363 9 -432 -10 Z m 2483 -637 c 18 -8 32 -19 32 -22 c 0 -4 26 -27 58 -52 c 31 -24 61 -50 65 -57 c 4 -7 14 -13 20 -13 c 7 0 30 -18 51 -39 c 51 -52 96 -67 256 -81 c 148 -14 165 -21 197 -88 c 24 -50 73 -82 140 -92 c 32 -4 81 -15 108 -23 c 28 -9 62 -18 78 -21 c 15 -4 27 -10 27 -14 c 0 -18 -136 -32 -306 -32 c -156 1 -184 3 -219 20 c -22 11 -50 19 -63 20 c -13 0 -44 6 -70 14 c -26 8 -68 17 -93 21 c -57 7 -129 72 -143 128 c -3 15 -11 27 -16 27 c -6 0 -10 6 -10 14 c 0 8 -6 21 -12 28 c -17 19 -33 44 -59 98 c -12 25 -32 58 -43 75 c -42 60 -58 105 -38 105 c 5 0 23 -7 40 -16 Z m -1638 -115 c 97 -18 156 -31 185 -41 c 17 -5 48 -14 70 -18 c 22 -4 65 -18 95 -30 c 30 -12 68 -25 85 -28 c 16 -3 43 -13 60 -23 c 16 -11 39 -19 50 -19 c 11 0 31 -6 45 -13 c 14 -8 39 -16 55 -20 c 38 -7 135 -50 135 -59 c 0 -10 -58 -35 -112 -49 c -54 -13 -140 -5 -182 16 c -16 8 -34 15 -42 15 c -17 0 -98 27 -141 46 c -17 8 -44 14 -60 14 c -15 0 -37 7 -47 15 c -11 8 -31 15 -45 15 c -14 0 -39 11 -55 25 c -16 13 -37 27 -47 30 c -11 4 -19 10 -19 14 c 0 3 -15 15 -32 26 c -18 10 -37 24 -41 32 c -4 7 -14 13 -21 13 c -13 0 -46 41 -46 56 c 0 4 15 3 33 -1 c 17 -4 52 -11 77 -16 Z m 1575 -263 c 18 -8 41 -26 50 -40 c 10 -14 21 -26 26 -26 c 4 0 47 -28 94 -62 c 93 -68 118 -105 130 -190 c 4 -27 11 -48 16 -48 c 5 0 9 -6 9 -12 c 0 -12 46 -112 77 -168 c 50 -91 65 -131 53 -145 c -21 -26 -66 -18 -94 16 c -14 17 -26 36 -26 43 c 0 7 -11 26 -25 42 c -14 16 -28 38 -31 49 c -4 11 -9 22 -13 25 c -3 3 -15 22 -25 43 c -11 20 -23 37 -28 37 c -4 0 -8 5 -8 12 c 0 16 -43 78 -54 78 c -4 0 -20 10 -35 23 c -15 12 -40 31 -55 42 c -16 11 -41 30 -56 42 c -48 39 -71 43 -191 32 c -108 -9 -159 -4 -194 21 c -5 3 -30 12 -55 20 c -66 19 -144 70 -130 84 c 7 7 73 13 169 16 c 133 4 162 8 178 23 c 11 9 30 17 44 18 c 13 0 49 9 79 19 c 30 10 56 19 58 19 c 1 1 18 -5 37 -13 Z m 4438 -190 c 9 -13 22 -46 28 -73 c 7 -26 18 -60 25 -75 c 8 -15 14 -40 14 -55 c 0 -15 7 -41 15 -57 c 8 -15 15 -40 15 -55 c 1 -14 7 -37 15 -51 c 8 -14 14 -37 15 -51 c 0 -15 7 -40 15 -55 c 8 -16 15 -42 15 -59 c 0 -16 7 -43 15 -59 c 14 -27 44 -127 65 -221 c 9 -36 35 -123 76 -255 c 8 -25 14 -57 14 -72 c 0 -15 7 -33 15 -42 c 28 -27 12 -46 -40 -46 c -36 0 -85 65 -85 112 c 0 20 -4 39 -9 43 c -6 3 -13 27 -16 53 c -4 26 -11 57 -16 70 c -5 12 -13 32 -18 45 c -6 12 -14 47 -20 77 c -15 82 -37 169 -54 220 c -9 25 -21 77 -27 115 c -7 39 -20 88 -29 110 c -10 22 -21 61 -24 87 c -4 26 -11 56 -16 65 c -21 41 -48 211 -37 238 c 8 22 32 18 49 -9 Z m -2083 -106 c 21 0 51 -7 66 -15 c 16 -8 43 -15 61 -15 c 18 0 56 -9 85 -21 c 35 -14 95 -24 178 -31 c 131 -10 175 -21 184 -44 c 3 -8 9 -44 12 -81 l 7 -66 l -67 7 c -37 4 -90 15 -119 26 c -29 10 -69 22 -89 25 c -21 4 -42 13 -49 21 c -6 8 -19 14 -29 14 c -9 0 -28 8 -41 18 c -13 10 -40 24 -59 32 c -19 7 -44 20 -55 27 c -11 7 -27 13 -36 13 c -9 0 -24 9 -34 20 c -10 11 -23 20 -28 20 c -14 0 -77 49 -77 60 c 0 6 10 6 26 0 c 14 -6 42 -10 64 -10 Z m 1261 -562 c 69 -38 105 -68 279 -245 c 110 -111 200 -206 200 -211 c 0 -5 7 -15 15 -22 c 8 -7 15 -19 15 -28 c 0 -8 7 -23 16 -33 c 40 -44 84 -159 56 -146 c -51 23 -73 37 -108 67 c -23 19 -54 42 -70 50 c -16 8 -33 21 -37 28 c -5 7 -18 17 -30 23 c -12 5 -35 18 -52 29 c -16 11 -37 23 -45 27 c -8 4 -21 13 -28 20 c -7 7 -20 13 -28 13 c -8 0 -14 4 -14 9 c 0 5 -10 13 -22 17 c -13 4 -36 17 -51 30 c -16 13 -32 24 -37 24 c -5 0 -36 18 -69 40 c -33 22 -71 45 -83 50 c -27 12 -57 30 -75 47 c -7 6 -27 20 -46 32 c -41 25 -127 134 -127 161 c 0 18 7 20 65 20 c 56 0 75 -5 145 -42 c 44 -23 83 -39 86 -36 c 3 3 -6 23 -21 43 c -23 34 -33 75 -20 75 c 3 0 42 -19 86 -42 Z m 863 -1021 c 20 -18 36 -37 36 -41 c 0 -4 18 -26 40 -48 c 22 -23 40 -46 40 -50 c 0 -4 9 -8 19 -8 c 11 0 22 -4 25 -9 c 3 -5 36 -14 73 -21 c 38 -7 77 -18 89 -25 c 11 -8 46 -18 77 -24 c 32 -6 66 -15 76 -21 c 11 -5 32 -10 48 -10 c 37 0 93 -35 93 -57 c 0 -33 -16 -46 -46 -39 c -16 4 -79 15 -141 24 c -61 9 -115 20 -119 25 c -13 12 -69 8 -103 -9 c -44 -22 -72 -12 -128 47 c -49 51 -54 59 -91 139 c -29 64 -50 160 -34 160 c 5 0 26 -15 46 -33 Z m 514 -372 c 32 -15 45 -27 49 -47 c 3 -16 9 -28 13 -28 c 4 0 10 -22 13 -49 c 3 -27 10 -58 16 -68 c 13 -26 41 -122 41 -144 c 0 -10 4 -20 8 -23 c 5 -3 15 -38 22 -78 c 7 -40 19 -80 26 -88 c 7 -8 18 -44 24 -80 c 6 -36 15 -69 20 -75 c 4 -5 11 -31 14 -57 c 4 -26 11 -50 17 -53 c 5 -4 9 -19 9 -35 c 0 -16 4 -32 10 -35 c 19 -12 -14 -44 -62 -60 c -44 -14 -50 -14 -73 1 c -16 10 -25 26 -26 43 c -1 38 -23 130 -41 171 c -9 19 -19 63 -23 98 c -4 34 -10 62 -15 62 c -4 0 -10 23 -14 50 c -4 28 -12 63 -18 78 c -6 15 -14 36 -19 47 c -4 11 -11 44 -14 72 c -4 29 -11 55 -16 59 c -5 3 -9 17 -9 32 c 0 15 -7 50 -16 77 c -39 124 -39 117 -14 137 c 13 10 26 17 29 16 c 3 -2 25 -12 49 -23 Z m 563 -988 c 21 -13 34 -51 44 -137 c 4 -30 11 -60 16 -66 c 5 -6 10 -33 11 -60 l 3 -49 l -46 -5 c -37 -4 -57 -14 -95 -48 c -59 -52 -80 -58 -128 -38 c -39 16 -41 36 -3 36 c 42 1 57 23 57 81 c -1 30 -7 65 -15 79 c -8 14 -14 39 -15 57 c 0 17 -4 35 -10 38 c -17 11 -11 64 13 101 l 22 35 l 63 -6 c 35 -3 72 -11 83 -18 Z m -682 -160 c 24 -13 45 -62 56 -131 c 8 -50 23 -103 37 -133 c 18 -37 4 -51 -59 -56 c -32 -2 -68 -7 -80 -12 c -17 -5 -22 -2 -27 17 c -4 12 -11 41 -17 63 c -6 22 -15 48 -20 58 c -6 10 -13 47 -16 83 c -6 61 -5 66 23 94 c 31 32 64 37 103 17 Z M 5315 12900 c -5 -6 -29 -28 -52 -49 c -24 -22 -43 -45 -43 -51 c 0 -7 -13 -25 -30 -40 c -16 -15 -30 -33 -30 -40 c 0 -15 -156 -170 -171 -170 c -6 0 -24 -13 -39 -30 c -15 -16 -34 -30 -42 -30 c -7 0 -20 -9 -28 -20 c -8 -11 -22 -20 -32 -20 c -9 0 -21 -6 -25 -13 c -12 -19 -81 -57 -104 -57 c -10 0 -19 -4 -19 -10 c 0 -5 -9 -10 -19 -10 c -11 0 -23 -4 -26 -10 c -3 -5 -19 -10 -36 -10 c -16 0 -29 -4 -29 -10 c 0 -5 -13 -10 -30 -10 c -16 0 -30 -4 -30 -9 c 0 -13 -98 -22 -312 -27 c -127 -3 -188 -1 -188 6 c 0 5 -22 10 -49 10 c -28 0 -53 5 -56 10 c -3 6 -24 10 -46 10 c -21 0 -39 5 -39 10 c 0 6 -18 10 -40 10 c -22 0 -40 5 -40 10 c 0 6 -13 10 -29 10 c -17 0 -33 5 -36 10 c -3 6 -15 10 -26 10 c -10 0 -19 5 -19 10 c 0 6 -13 10 -30 10 c -16 0 -30 5 -30 10 c 0 6 -9 10 -19 10 c -10 0 -21 7 -25 15 c -3 8 -16 15 -30 15 c -14 0 -28 5 -31 10 c -3 6 -19 10 -36 10 c -16 0 -29 5 -29 10 c 0 6 -9 10 -20 10 c -11 0 -20 5 -20 10 c 0 6 -13 10 -30 10 c -16 0 -30 5 -30 10 c 0 6 -13 10 -30 10 c -16 0 -30 5 -30 10 c 0 6 -11 10 -25 10 c -14 0 -25 5 -25 10 c 0 6 -13 10 -30 10 c -16 0 -30 5 -30 10 c 0 6 -13 10 -30 10 c -16 0 -30 5 -30 10 c 0 6 -13 10 -29 10 c -17 0 -33 5 -36 10 c -3 6 -17 10 -30 10 c -13 0 -27 5 -30 10 c -3 6 -17 10 -29 10 c -13 0 -29 7 -36 15 c -7 8 -23 15 -36 15 c -12 0 -26 5 -29 10 c -3 6 -24 10 -46 10 c -21 0 -39 5 -39 10 c 0 6 -13 10 -30 10 c -16 0 -30 5 -30 10 c 0 6 -18 10 -40 10 c -22 0 -40 5 -40 10 c 0 6 -18 10 -39 10 c -22 0 -43 5 -46 10 c -3 6 -24 10 -46 10 c -21 0 -39 5 -39 10 c 0 6 -18 10 -39 10 c -22 0 -43 5 -46 10 c -3 6 -28 10 -56 10 c -27 0 -49 5 -49 10 c 0 6 -26 10 -59 10 c -33 0 -63 5 -66 10 c -3 6 -39 10 -80 10 c -41 0 -77 5 -80 10 c -4 6 -95 10 -241 10 c -149 0 -234 -4 -234 -10 c 0 -6 -27 -10 -60 -10 c -33 0 -60 -4 -60 -10 c 0 -5 -18 -10 -39 -10 c -22 0 -43 -4 -46 -10 c -3 -5 -19 -10 -36 -10 c -16 0 -29 -4 -29 -10 c 0 -5 -9 -10 -20 -10 c -11 0 -20 -4 -20 -10 c 0 -5 -13 -10 -30 -10 c -16 0 -30 -4 -30 -10 c 0 -5 -9 -10 -20 -10 c -11 0 -20 -4 -20 -10 c 0 -5 -9 -10 -19 -10 c -25 0 -111 -86 -111 -111 c 0 -10 -7 -19 -15 -19 c -13 0 -15 -334 -15 -2949 c 0 -2612 2 -2950 15 -2955 c 8 -3 15 -12 15 -21 c 0 -8 5 -15 10 -15 c 6 0 10 -11 10 -24 c 0 -17 9 -28 30 -38 c 16 -7 30 -16 30 -20 c 0 -5 11 -8 25 -8 c 14 0 25 -4 25 -10 c 0 -5 23 -10 50 -10 c 28 0 50 5 50 10 c 0 6 9 10 20 10 c 11 0 20 5 20 10 c 0 6 11 10 25 10 c 14 0 25 5 25 10 c 0 6 9 10 19 10 c 10 0 21 7 25 15 c 3 8 16 15 30 15 c 14 0 28 5 31 10 c 3 6 21 10 40 10 c 19 0 37 5 40 10 c 3 6 42 10 85 10 c 43 0 82 4 85 10 c 8 13 172 13 180 0 c 3 -6 51 -10 109 -10 c 56 0 106 -4 111 -9 c 6 -5 35 -12 65 -15 c 103 -9 171 -22 178 -33 c 7 -10 29 -14 140 -29 c 23 -3 42 -10 42 -15 c 0 -5 15 -9 34 -9 c 19 0 38 -4 41 -10 c 3 -5 22 -10 41 -10 c 19 0 34 -4 34 -10 c 0 -5 18 -10 40 -10 c 22 0 40 -4 40 -10 c 0 -5 16 -10 35 -10 c 19 0 35 -4 35 -10 c 0 -5 14 -10 30 -10 c 17 0 30 -4 30 -10 c 0 -5 13 -10 29 -10 c 17 0 33 -4 36 -10 c 3 -5 19 -10 36 -10 c 16 0 29 -4 29 -10 c 0 -5 14 -10 30 -10 c 20 0 30 -5 30 -15 c 0 -10 10 -15 29 -15 c 17 0 33 -4 36 -10 c 3 -5 19 -10 36 -10 c 16 0 29 -4 29 -10 c 0 -5 9 -10 20 -10 c 11 0 20 -4 20 -10 c 0 -5 14 -10 30 -10 c 17 0 30 -4 30 -10 c 0 -5 13 -10 29 -10 c 17 0 33 -4 36 -10 c 3 -5 15 -10 26 -10 c 10 0 19 -4 19 -10 c 0 -5 14 -10 30 -10 c 17 0 30 -4 30 -10 c 0 -5 11 -10 24 -10 c 14 0 28 -4 31 -10 c 3 -5 15 -10 26 -10 c 10 0 19 -4 19 -10 c 0 -5 13 -10 29 -10 c 17 0 33 -4 36 -10 c 3 -5 15 -10 25 -10 c 10 0 25 -7 34 -15 c 8 -8 26 -15 40 -15 c 14 0 26 -4 26 -10 c 0 -5 16 -10 35 -10 c 19 0 35 -4 35 -10 c 0 -5 20 -10 44 -10 c 25 0 48 -4 51 -10 c 3 -5 28 -10 56 -10 c 27 0 49 -4 49 -9 c 0 -8 164 -20 270 -20 c 100 0 260 12 260 20 c 0 5 22 9 49 9 c 28 0 53 4 56 10 c 3 5 19 10 35 10 c 16 0 32 5 35 10 c 3 6 17 10 31 10 c 24 0 31 2 91 34 c 17 9 38 16 47 16 c 9 0 16 5 16 10 c 0 6 9 10 20 10 c 11 0 20 5 20 10 c 0 6 6 10 13 10 c 18 0 67 24 67 33 c 0 4 9 7 20 7 c 11 0 20 5 20 10 c 0 6 10 10 23 10 c 12 0 29 9 37 20 c 8 11 21 20 30 20 c 9 0 22 9 30 20 c 8 11 21 20 30 20 c 8 0 26 14 39 30 c 13 17 39 37 57 46 c 19 9 34 20 34 25 c 0 5 9 9 20 9 c 11 0 20 5 20 10 c 0 6 30 10 70 10 c 40 0 70 -4 70 -10 c 0 -5 9 -10 20 -10 c 11 0 20 -4 20 -9 c 0 -5 15 -16 34 -25 c 18 -9 44 -29 57 -46 c 13 -16 31 -30 39 -30 c 9 0 22 -9 30 -20 c 8 -11 21 -20 30 -20 c 9 0 22 -9 30 -20 c 8 -11 25 -20 37 -20 c 13 0 23 -4 23 -10 c 0 -5 9 -10 20 -10 c 11 0 20 -4 20 -10 c 0 -5 9 -10 20 -10 c 11 0 20 -4 20 -10 c 0 -5 9 -10 20 -10 c 11 0 20 -4 20 -10 c 0 -5 9 -10 20 -10 c 11 0 20 -4 20 -10 c 0 -5 9 -10 19 -10 c 11 0 26 -7 35 -15 c 8 -8 24 -15 35 -15 c 12 0 21 -4 21 -10 c 0 -5 13 -10 29 -10 c 17 0 33 -4 36 -10 c 3 -5 21 -10 40 -10 c 19 0 37 -4 40 -10 c 3 -5 28 -10 55 -10 c 26 0 50 -5 52 -11 c 5 -15 521 -15 526 0 c 2 6 26 11 53 11 c 27 0 49 5 49 10 c 0 6 23 10 50 10 c 28 0 50 5 50 10 c 0 6 16 10 35 10 c 19 0 35 5 35 10 c 0 6 15 10 34 10 c 19 0 37 4 41 9 c 9 16 66 41 92 41 c 12 0 23 5 23 10 c 0 6 14 10 30 10 c 17 0 30 5 30 10 c 0 6 9 10 20 10 c 11 0 20 5 20 10 c 0 6 9 10 20 10 c 11 0 29 4 40 10 c 11 6 29 15 40 20 c 11 6 31 10 45 10 c 14 0 25 5 25 10 c 0 6 11 10 24 10 c 14 0 28 4 31 10 c 3 6 15 10 26 10 c 10 0 19 5 19 10 c 0 6 13 10 29 10 c 17 0 33 5 36 10 c 3 6 19 10 36 10 c 19 0 29 5 29 15 c 0 10 10 15 30 15 c 17 0 30 5 30 10 c 0 6 13 10 29 10 c 17 0 33 5 36 10 c 3 6 19 10 36 10 c 16 0 29 5 29 10 c 0 6 14 10 30 10 c 17 0 30 5 30 10 c 0 6 13 10 29 10 c 17 0 33 5 36 10 c 3 6 24 10 46 10 c 21 0 39 5 39 10 c 0 6 15 10 34 10 c 19 0 38 5 41 10 c 3 6 22 10 41 10 c 19 0 34 4 34 9 c 0 5 19 12 43 15 c 109 14 132 19 138 28 c 6 10 91 27 179 35 c 30 2 59 9 65 14 c 5 5 53 9 106 9 c 55 0 101 4 104 10 c 3 6 46 10 95 10 c 49 0 92 -4 95 -10 c 3 -5 42 -10 85 -10 c 43 0 82 -4 85 -10 c 3 -6 21 -10 40 -10 c 19 0 37 -4 40 -10 c 3 -5 15 -10 25 -10 c 10 0 25 -7 34 -15 c 8 -8 22 -15 30 -15 c 9 0 16 -4 16 -10 c 0 -5 11 -10 25 -10 c 14 0 25 -4 25 -10 c 0 -5 9 -10 20 -10 c 11 0 20 -4 20 -10 c 0 -5 23 -10 50 -10 c 28 0 50 5 50 10 c 0 6 11 10 25 10 c 14 0 25 3 25 8 c 0 4 14 13 30 20 c 17 8 30 19 30 26 c 0 20 30 76 41 76 c 5 0 9 1145 9 2950 c 0 2616 -2 2950 -15 2950 c -8 0 -15 9 -15 19 c 0 25 -86 111 -111 111 c -10 0 -19 5 -19 10 c 0 6 -9 10 -20 10 c -11 0 -20 5 -20 10 c 0 6 -11 10 -24 10 c -14 0 -28 5 -31 10 c -3 6 -15 10 -26 10 c -10 0 -19 5 -19 10 c 0 6 -13 10 -29 10 c -17 0 -33 5 -36 10 c -3 6 -24 10 -46 10 c -21 0 -39 5 -39 10 c 0 6 -27 10 -60 10 c -35 0 -60 4 -60 10 c 0 7 -77 9 -237 6 c -279 -6 -403 -14 -403 -27 c 0 -5 -27 -9 -60 -9 c -33 0 -60 -4 -60 -10 c 0 -5 -22 -10 -49 -10 c -28 0 -53 -4 -56 -10 c -3 -5 -24 -10 -46 -10 c -21 0 -39 -4 -39 -10 c 0 -5 -18 -10 -39 -10 c -22 0 -43 -4 -46 -10 c -3 -5 -24 -10 -46 -10 c -21 0 -39 -4 -39 -10 c 0 -5 -18 -10 -40 -10 c -22 0 -40 -4 -40 -10 c 0 -5 -13 -10 -30 -10 c -16 0 -30 -4 -30 -10 c 0 -5 -16 -10 -35 -10 c -19 0 -43 -4 -53 -9 c -9 -4 -31 -16 -49 -25 c -17 -9 -40 -16 -51 -16 c -12 0 -24 -4 -27 -10 c -3 -5 -17 -10 -30 -10 c -13 0 -27 -4 -30 -10 c -3 -5 -19 -10 -36 -10 c -16 0 -29 -4 -29 -10 c 0 -5 -13 -10 -30 -10 c -16 0 -30 -4 -30 -10 c 0 -5 -11 -10 -25 -10 c -14 0 -25 -4 -25 -10 c 0 -5 -13 -10 -30 -10 c -16 0 -30 -4 -30 -10 c 0 -5 -13 -10 -30 -10 c -16 0 -30 -4 -30 -10 c 0 -5 -13 -10 -30 -10 c -16 0 -30 -4 -30 -10 c 0 -5 -9 -10 -20 -10 c -11 0 -20 -4 -20 -10 c 0 -5 -13 -10 -29 -10 c -17 0 -33 -4 -36 -10 c -3 -5 -17 -10 -31 -10 c -14 0 -27 -7 -30 -15 c -4 -8 -15 -15 -25 -15 c -10 0 -19 -4 -19 -10 c 0 -5 -13 -10 -30 -10 c -16 0 -30 -4 -30 -10 c 0 -5 -9 -10 -19 -10 c -11 0 -23 -4 -26 -10 c -3 -5 -19 -10 -36 -10 c -16 0 -29 -4 -29 -10 c 0 -5 -18 -10 -40 -10 c -22 0 -40 -4 -40 -10 c 0 -5 -18 -10 -39 -10 c -22 0 -43 -4 -46 -10 c -3 -5 -28 -10 -55 -10 c -27 0 -52 -4 -55 -10 c -4 -6 -78 -10 -190 -10 c -112 0 -186 4 -190 10 c -3 6 -28 10 -55 10 c -27 0 -52 5 -55 10 c -3 6 -19 10 -36 10 c -16 0 -29 5 -29 10 c 0 6 -13 10 -29 10 c -17 0 -33 5 -36 10 c -3 6 -15 10 -26 10 c -10 0 -19 5 -19 10 c 0 6 -13 10 -28 10 c -16 0 -34 8 -42 20 c -8 11 -22 20 -31 20 c -9 0 -19 7 -23 15 c -3 8 -14 15 -23 15 c -10 0 -25 9 -33 20 c -8 11 -21 20 -28 20 c -8 0 -27 14 -42 30 c -15 17 -33 30 -39 30 c -15 0 -171 155 -171 170 c 0 7 -13 25 -30 40 c -16 15 -30 33 -30 40 c 0 10 -43 54 -94 98 c -18 14 -156 16 -171 2 Z m -3415 -428 c 63 -5 125 -14 137 -20 c 12 -7 44 -12 72 -12 c 27 0 53 -4 56 -10 c 3 -5 28 -10 56 -10 c 27 0 49 -4 49 -10 c 0 -5 18 -10 39 -10 c 22 0 43 -4 46 -10 c 3 -5 24 -10 45 -10 c 21 0 42 -4 45 -10 c 3 -5 22 -10 41 -10 c 19 0 34 -4 34 -10 c 0 -5 18 -10 40 -10 c 22 0 40 -4 40 -10 c 0 -5 16 -10 35 -10 c 19 0 35 -4 35 -10 c 0 -5 18 -10 40 -10 c 22 0 40 -4 40 -10 c 0 -5 14 -10 30 -10 c 17 0 30 -4 30 -10 c 0 -5 14 -10 30 -10 c 18 0 33 -6 36 -15 c 4 -9 19 -15 35 -15 c 16 0 29 -4 29 -10 c 0 -5 14 -10 30 -10 c 17 0 30 -4 30 -10 c 0 -5 13 -10 29 -10 c 17 0 33 -4 36 -10 c 3 -5 19 -10 36 -10 c 16 0 29 -4 29 -10 c 0 -5 9 -10 20 -10 c 11 0 20 -4 20 -10 c 0 -5 14 -10 30 -10 c 17 0 30 -4 30 -10 c 0 -5 14 -10 30 -10 c 17 0 30 -4 30 -10 c 0 -5 11 -10 25 -10 c 14 0 25 -4 25 -10 c 0 -5 14 -10 30 -10 c 17 0 30 -4 30 -8 c 0 -4 21 -14 46 -21 c 25 -8 48 -20 51 -27 c 3 -8 20 -14 39 -14 c 19 0 34 -4 34 -10 c 0 -5 14 -10 30 -10 c 17 0 30 -4 30 -10 c 0 -5 14 -10 30 -10 c 17 0 30 -4 30 -10 c 0 -5 16 -10 35 -10 c 19 0 35 -4 35 -10 c 0 -5 23 -10 50 -10 c 28 0 50 -4 50 -10 c 0 -5 23 -10 50 -10 c 28 0 50 -4 50 -10 c 0 -6 43 -10 110 -10 c 62 0 120 -5 135 -12 c 19 -9 28 -9 37 0 c 8 8 53 12 130 12 c 72 0 118 4 118 10 c 0 6 22 10 49 10 c 28 0 53 5 56 10 c 3 6 24 10 46 10 c 21 0 39 5 39 10 c 0 6 14 10 30 10 c 17 0 30 5 30 10 c 0 6 14 10 30 10 c 17 0 30 5 30 10 c 0 6 11 10 25 10 c 14 0 25 5 25 10 c 0 6 7 10 16 10 c 8 0 22 7 30 15 c 21 21 122 21 131 0 c 6 -16 -22 -55 -40 -55 c -5 0 -22 -13 -37 -30 c -15 -16 -33 -30 -39 -30 c -7 0 -21 -9 -33 -20 c -12 -11 -30 -20 -40 -20 c -10 0 -18 -4 -18 -10 c 0 -5 -6 -10 -13 -10 c -7 0 -23 -9 -35 -20 c -12 -11 -33 -20 -47 -20 c -14 0 -25 -4 -25 -10 c 0 -5 -9 -10 -19 -10 c -10 0 -21 -7 -25 -15 c -3 -9 -18 -15 -36 -15 c -16 0 -30 -4 -30 -10 c 0 -5 -13 -10 -29 -10 c -17 0 -33 -4 -36 -10 c -3 -5 -33 -10 -66 -10 c -33 0 -59 -4 -59 -10 c 0 -6 -68 -10 -185 -10 c -117 0 -185 4 -185 10 c 0 6 -22 10 -49 10 c -28 0 -53 5 -56 10 c -3 6 -24 10 -46 10 c -21 0 -39 5 -39 10 c 0 6 -16 10 -35 10 c -22 0 -38 6 -41 15 c -4 8 -19 15 -34 15 c -16 0 -32 5 -35 10 c -3 6 -15 10 -26 10 c -10 0 -19 5 -19 10 c 0 6 -13 10 -30 10 c -16 0 -30 4 -30 8 c 0 5 -22 15 -50 22 c -27 7 -50 17 -50 22 c 0 4 -13 8 -29 8 c -17 0 -33 5 -36 10 c -3 6 -15 10 -26 10 c -10 0 -19 5 -19 10 c 0 6 -13 10 -30 10 c -16 0 -30 5 -30 10 c 0 6 -13 10 -30 10 c -16 0 -30 5 -30 10 c 0 6 -9 10 -19 10 c -11 0 -23 5 -26 10 c -3 6 -17 10 -29 10 c -13 0 -29 7 -36 15 c -7 8 -23 15 -36 15 c -13 0 -24 5 -24 10 c 0 6 -16 10 -35 10 c -19 0 -35 5 -35 10 c 0 6 -13 10 -30 10 c -16 0 -30 5 -30 10 c 0 6 -13 10 -30 10 c -16 0 -30 5 -30 10 c 0 6 -13 10 -29 10 c -17 0 -33 5 -36 10 c -3 6 -24 10 -46 10 c -21 0 -39 5 -39 10 c 0 6 -13 10 -30 10 c -16 0 -30 5 -30 10 c 0 6 -18 10 -40 10 c -22 0 -40 5 -40 10 c 0 6 -15 10 -34 10 c -19 0 -38 5 -41 10 c -3 6 -26 10 -51 10 c -24 0 -44 5 -44 10 c 0 6 -15 10 -34 10 c -18 0 -39 7 -46 15 c -8 10 -30 15 -61 15 c -26 0 -51 5 -54 10 c -3 6 -33 10 -65 10 c -32 0 -62 5 -65 10 c -3 6 -40 10 -81 10 c -43 0 -74 4 -74 10 c 0 6 -81 10 -224 10 c -139 0 -227 -4 -231 -10 c -3 -5 -31 -10 -61 -10 c -30 0 -54 -4 -54 -10 c 0 -5 -9 -10 -20 -10 c -25 0 -47 37 -31 53 c 6 6 11 19 11 29 c 0 10 5 18 10 18 c 6 0 10 7 10 16 c 0 20 24 44 44 44 c 9 0 16 5 16 10 c 0 6 6 10 14 10 c 8 0 16 5 18 12 c 2 6 43 14 102 18 c 53 4 100 11 104 15 c 4 4 32 4 62 1 c 30 -3 107 -10 170 -14 Z m 7275 8 c 3 -5 35 -10 69 -10 c 44 0 67 -5 76 -15 c 7 -8 21 -15 31 -15 c 11 0 19 -4 19 -10 c 0 -5 7 -10 16 -10 c 20 0 44 -24 44 -44 c 0 -9 5 -16 10 -16 c 6 0 10 -9 10 -19 c 0 -11 5 -23 10 -26 c 17 -10 11 -34 -11 -46 c -15 -8 -24 -8 -32 0 c -6 6 -35 11 -63 11 c -29 0 -56 5 -59 10 c -4 6 -92 10 -231 10 c -143 0 -224 -4 -224 -10 c 0 -6 -33 -10 -79 -10 c -44 0 -83 -4 -86 -10 c -3 -5 -30 -10 -60 -10 c -30 0 -57 -4 -60 -10 c -3 -5 -25 -10 -48 -10 c -23 0 -51 -7 -61 -15 c -11 -8 -34 -15 -52 -15 c -18 0 -36 -4 -39 -10 c -3 -5 -21 -10 -40 -10 c -19 0 -37 -4 -40 -10 c -3 -5 -24 -10 -46 -10 c -21 0 -39 -4 -39 -10 c 0 -5 -18 -10 -40 -10 c -22 0 -40 -4 -40 -10 c 0 -5 -13 -10 -30 -10 c -16 0 -30 -4 -30 -10 c 0 -5 -16 -10 -35 -10 c -19 0 -44 -4 -55 -10 c -11 -5 -29 -14 -40 -20 c -11 -5 -33 -10 -50 -10 c -16 0 -30 -4 -30 -10 c 0 -5 -13 -10 -30 -10 c -16 0 -30 -4 -30 -10 c 0 -5 -16 -10 -35 -10 c -19 0 -35 -4 -35 -10 c 0 -5 -11 -10 -24 -10 c -13 0 -29 -7 -36 -15 c -7 -8 -21 -15 -31 -15 c -10 0 -21 -4 -24 -10 c -3 -5 -17 -10 -31 -10 c -13 0 -24 -4 -24 -10 c 0 -5 -13 -10 -30 -10 c -16 0 -30 -4 -30 -10 c 0 -5 -13 -10 -30 -10 c -16 0 -30 -4 -30 -10 c 0 -5 -9 -10 -19 -10 c -11 0 -23 -4 -26 -10 c -3 -5 -19 -10 -36 -10 c -16 0 -29 -4 -29 -10 c 0 -5 -11 -10 -24 -10 c -14 0 -28 -4 -31 -10 c -3 -5 -15 -10 -26 -10 c -10 0 -19 -4 -19 -10 c 0 -5 -13 -10 -30 -10 c -16 0 -30 -4 -30 -10 c 0 -5 -9 -10 -19 -10 c -11 0 -23 -4 -26 -10 c -3 -5 -19 -10 -35 -10 c -15 0 -30 -7 -34 -15 c -3 -9 -19 -15 -41 -15 c -19 0 -35 -4 -35 -10 c 0 -5 -18 -10 -39 -10 c -22 0 -43 -4 -46 -10 c -3 -5 -28 -10 -55 -10 c -27 0 -52 -4 -55 -10 c -4 -6 -77 -10 -185 -10 c -108 0 -181 4 -185 10 c -3 6 -30 10 -60 10 c -30 0 -57 5 -60 10 c -3 6 -19 10 -36 10 c -16 0 -29 5 -29 10 c 0 6 -14 10 -30 10 c -18 0 -33 6 -36 15 c -4 8 -15 15 -25 15 c -10 0 -19 5 -19 10 c 0 6 -11 10 -25 10 c -14 0 -35 9 -47 20 c -12 11 -28 20 -35 20 c -7 0 -13 5 -13 10 c 0 6 -8 10 -18 10 c -10 0 -28 9 -40 20 c -12 11 -26 20 -33 20 c -6 0 -24 14 -39 30 c -15 17 -34 30 -42 30 c -18 0 -43 44 -34 59 c 11 17 112 14 130 -4 c 8 -8 22 -15 30 -15 c 9 0 16 -4 16 -10 c 0 -5 11 -10 25 -10 c 14 0 25 -4 25 -10 c 0 -5 14 -10 30 -10 c 17 0 30 -4 30 -10 c 0 -5 14 -10 30 -10 c 17 0 30 -4 30 -10 c 0 -5 18 -10 39 -10 c 22 0 43 -4 46 -10 c 3 -5 28 -10 56 -10 c 27 0 49 -4 49 -10 c 0 -6 44 -10 113 -10 c 68 0 117 -4 124 -11 c 8 -8 17 -8 31 0 c 12 6 73 11 141 11 c 74 0 121 4 121 10 c 0 6 23 10 50 10 c 28 0 50 5 50 10 c 0 6 23 10 50 10 c 28 0 50 5 50 10 c 0 6 16 10 35 10 c 19 0 35 5 35 10 c 0 6 13 10 29 10 c 17 0 33 5 36 10 c 3 6 17 10 31 10 c 13 0 24 5 24 10 c 0 6 13 10 29 10 c 16 0 34 7 41 15 c 7 8 21 15 31 15 c 10 0 21 5 24 10 c 3 6 15 10 26 10 c 10 0 19 5 19 10 c 0 6 14 10 30 10 c 17 0 30 5 30 10 c 0 6 9 10 19 10 c 11 0 23 5 26 10 c 3 6 19 10 36 10 c 16 0 29 5 29 10 c 0 6 14 10 30 10 c 17 0 30 5 30 10 c 0 6 9 10 20 10 c 11 0 20 5 20 10 c 0 6 13 10 29 10 c 17 0 33 5 36 10 c 3 6 19 10 36 10 c 16 0 29 5 29 10 c 0 6 14 10 30 10 c 17 0 30 5 30 10 c 0 6 13 10 29 10 c 16 0 31 6 35 15 c 3 9 18 15 36 15 c 16 0 30 5 30 10 c 0 6 14 10 30 10 c 17 0 30 5 30 10 c 0 6 18 10 40 10 c 22 0 40 5 40 10 c 0 6 16 10 35 10 c 19 0 35 5 35 10 c 0 6 18 10 40 10 c 22 0 40 5 40 10 c 0 6 18 10 40 10 c 22 0 40 5 40 10 c 0 6 20 10 45 10 c 25 0 45 5 45 10 c 0 6 18 10 40 10 c 22 0 40 5 40 10 c 0 6 22 10 49 10 c 28 0 53 5 56 10 c 3 6 28 10 54 10 c 27 0 68 7 91 15 c 25 9 77 15 126 15 c 45 0 86 5 89 10 c 3 6 44 10 90 10 c 46 0 87 -4 90 -10 Z m -7370 -590 c 3 -6 52 -10 111 -10 c 63 0 104 -4 104 -10 c 0 -6 27 -10 60 -10 c 33 0 60 -4 60 -10 c 0 -6 26 -10 59 -10 c 33 0 63 -4 66 -10 c 3 -5 24 -10 46 -10 c 21 0 39 -4 39 -10 c 0 -5 15 -10 33 -10 c 18 0 42 -7 53 -15 c 10 -8 33 -15 51 -15 c 17 0 35 -4 38 -10 c 3 -5 22 -10 41 -10 c 19 0 34 -4 34 -10 c 0 -5 16 -10 35 -10 c 19 0 35 -4 35 -10 c 0 -5 18 -10 40 -10 c 22 0 40 -4 40 -10 c 0 -5 14 -10 30 -10 c 17 0 30 -4 30 -10 c 0 -5 16 -10 35 -10 c 19 0 35 -4 35 -10 c 0 -5 14 -10 30 -10 c 17 0 30 -4 30 -10 c 0 -5 14 -10 30 -10 c 17 0 30 -4 30 -10 c 0 -5 13 -10 29 -10 c 17 0 32 -4 36 -9 c 3 -5 19 -12 35 -16 c 17 -4 30 -11 30 -16 c 0 -5 9 -9 19 -9 c 11 0 23 -4 26 -10 c 3 -5 17 -10 30 -10 c 13 0 27 -4 30 -10 c 3 -5 17 -10 31 -10 c 13 0 24 -4 24 -10 c 0 -5 11 -10 25 -10 c 14 0 25 -4 25 -10 c 0 -5 14 -10 30 -10 c 17 0 30 -4 30 -10 c 0 -5 14 -10 30 -10 c 17 0 30 -4 30 -10 c 0 -5 9 -10 20 -10 c 11 0 20 -4 20 -10 c 0 -5 13 -10 29 -10 c 17 0 33 -4 36 -10 c 3 -5 17 -10 30 -10 c 13 0 27 -4 30 -10 c 3 -5 17 -10 30 -10 c 13 0 27 -4 30 -10 c 3 -5 19 -10 34 -10 c 16 0 34 -7 41 -15 c 7 -8 27 -15 46 -15 c 18 0 36 -4 39 -10 c 3 -5 30 -10 59 -10 c 28 0 57 -5 63 -11 c 14 -14 502 -14 516 0 c 6 6 32 11 58 11 c 26 0 51 5 54 10 c 3 6 21 10 39 10 c 19 0 39 7 46 15 c 7 8 23 15 36 15 c 12 0 26 5 29 10 c 3 6 17 10 30 10 c 13 0 27 5 30 10 c 3 6 15 10 26 10 c 10 0 19 5 19 10 c 0 6 9 10 20 10 c 11 0 20 5 20 10 c 0 6 37 10 90 10 c 53 0 90 -4 90 -10 c 0 -5 8 -10 19 -10 c 24 0 71 -47 71 -71 c 0 -11 5 -19 10 -19 c 6 0 10 -9 10 -20 c 0 -11 5 -20 10 -20 c 7 0 10 -718 10 -2134 c 0 -1413 -3 -2137 -10 -2141 c -5 -3 -10 -16 -10 -28 c 0 -13 -9 -29 -20 -37 c -11 -8 -20 -20 -20 -27 c 0 -15 -136 -153 -151 -153 c -6 0 -24 -13 -39 -30 c -15 -16 -34 -30 -42 -30 c -7 0 -20 -9 -28 -20 c -8 -11 -25 -20 -37 -20 c -13 0 -23 -3 -23 -7 c 0 -5 -10 -13 -23 -19 c -12 -7 -53 -28 -91 -48 c -38 -20 -79 -36 -92 -36 c -13 0 -24 -4 -24 -10 c 0 -5 -13 -10 -30 -10 c -16 0 -30 -4 -30 -10 c 0 -5 -25 -10 -55 -10 c -30 0 -55 -4 -55 -10 c 0 -6 -72 -10 -195 -10 c -123 0 -195 4 -195 10 c 0 6 -22 10 -49 10 c -28 0 -53 5 -56 10 c -3 6 -24 10 -46 10 c -21 0 -39 5 -39 10 c 0 6 -18 10 -40 10 c -22 0 -40 5 -40 10 c 0 6 -11 10 -23 10 c -26 0 -83 25 -92 41 c -4 5 -17 9 -31 9 c -13 0 -24 5 -24 10 c 0 6 -11 10 -24 10 c -14 0 -28 5 -31 10 c -3 6 -15 10 -26 10 c -10 0 -19 5 -19 10 c 0 6 -11 10 -24 10 c -14 0 -28 5 -31 10 c -3 6 -17 10 -31 10 c -13 0 -24 5 -24 10 c 0 6 -13 10 -30 10 c -16 0 -30 5 -30 10 c 0 6 -13 10 -30 10 c -16 0 -30 5 -30 10 c 0 6 -11 10 -24 10 c -14 0 -28 5 -31 10 c -3 6 -17 10 -31 10 c -13 0 -24 5 -24 10 c 0 6 -13 10 -30 10 c -16 0 -30 5 -30 10 c 0 6 -11 10 -24 10 c -14 0 -31 7 -40 15 c -8 8 -26 15 -40 15 c -14 0 -26 5 -26 10 c 0 6 -13 10 -30 10 c -16 0 -30 5 -30 10 c 0 6 -15 10 -34 10 c -19 0 -38 5 -41 10 c -3 6 -22 10 -41 10 c -19 0 -34 5 -34 10 c 0 6 -13 10 -30 10 c -16 0 -30 5 -30 10 c 0 6 -18 10 -40 10 c -22 0 -40 5 -40 10 c 0 6 -18 10 -39 10 c -22 0 -43 5 -46 10 c -3 6 -24 10 -46 10 c -21 0 -39 5 -39 10 c 0 6 -18 10 -39 10 c -22 0 -43 5 -46 10 c -3 6 -26 10 -50 10 c -24 0 -47 5 -50 10 c -3 6 -24 10 -46 10 c -22 0 -56 7 -76 15 c -20 8 -66 15 -104 15 c -39 0 -69 4 -69 10 c 0 6 -86 10 -239 10 c -149 0 -242 4 -246 10 c -3 6 -15 10 -26 10 c -10 0 -19 5 -19 10 c 0 6 -7 10 -16 10 c -20 0 -44 24 -44 44 c 0 9 -4 16 -10 16 c -5 0 -10 9 -10 19 c 0 11 -4 23 -10 26 c -7 4 -10 762 -10 2241 c 0 1483 3 2234 10 2234 c 6 0 10 9 10 20 c 0 11 5 20 10 20 c 6 0 10 8 10 18 c 1 24 24 52 43 52 c 9 0 19 5 22 10 c 3 6 15 10 26 10 c 10 0 19 5 19 10 c 0 6 30 10 69 10 c 39 0 73 5 76 10 c 3 6 44 10 90 10 c 46 0 87 -4 90 -10 Z m 7370 0 c 3 -5 37 -10 76 -10 c 39 0 69 -4 69 -10 c 0 -5 7 -10 15 -10 c 34 0 95 -46 95 -72 c 0 -10 5 -18 10 -18 c 6 0 10 -9 10 -20 c 0 -11 5 -20 10 -20 c 7 0 10 -751 10 -2234 c 0 -1479 -3 -2237 -10 -2241 c -5 -3 -10 -15 -10 -26 c 0 -10 -4 -19 -10 -19 c -5 0 -10 -7 -10 -16 c 0 -20 -24 -44 -44 -44 c -9 0 -16 -4 -16 -10 c 0 -5 -9 -10 -19 -10 c -11 0 -23 -4 -26 -10 c -4 -6 -97 -10 -246 -10 c -153 0 -239 -4 -239 -10 c 0 -6 -33 -10 -77 -10 c -53 -1 -84 -5 -97 -15 c -11 -8 -41 -15 -67 -15 c -26 0 -51 -4 -54 -10 c -3 -5 -28 -10 -56 -10 c -27 0 -49 -4 -49 -10 c 0 -5 -18 -10 -39 -10 c -22 0 -43 -4 -46 -10 c -3 -5 -26 -10 -51 -10 c -24 0 -44 -4 -44 -10 c 0 -5 -16 -10 -35 -10 c -19 0 -35 -4 -35 -10 c 0 -5 -18 -10 -40 -10 c -22 0 -40 -4 -40 -10 c 0 -5 -13 -10 -30 -10 c -16 0 -30 -4 -30 -10 c 0 -5 -18 -10 -39 -10 c -22 0 -43 -4 -46 -10 c -3 -5 -17 -10 -30 -10 c -13 0 -27 -4 -30 -10 c -3 -5 -19 -10 -36 -10 c -16 0 -29 -4 -29 -10 c 0 -5 -13 -10 -29 -10 c -16 0 -31 -6 -35 -15 c -3 -9 -18 -15 -36 -15 c -16 0 -30 -4 -30 -10 c 0 -5 -13 -10 -30 -10 c -16 0 -30 -4 -30 -10 c 0 -5 -11 -10 -24 -10 c -14 0 -28 -4 -31 -10 c -3 -6 -17 -10 -31 -10 c -13 0 -24 -4 -24 -10 c 0 -5 -13 -10 -30 -10 c -16 0 -30 -4 -30 -10 c 0 -5 -13 -10 -30 -10 c -16 0 -30 -4 -30 -10 c 0 -5 -9 -10 -20 -10 c -11 0 -20 -4 -20 -10 c 0 -5 -16 -10 -35 -10 c -19 0 -35 -4 -35 -10 c 0 -5 -9 -10 -20 -10 c -11 0 -20 -4 -20 -10 c 0 -5 -13 -10 -30 -10 c -16 0 -30 -4 -30 -10 c 0 -5 -11 -10 -24 -10 c -14 0 -27 -4 -31 -9 c -9 -16 -66 -41 -92 -41 c -12 0 -23 -4 -23 -10 c 0 -5 -18 -10 -40 -10 c -22 0 -40 -4 -40 -10 c 0 -5 -18 -10 -39 -10 c -22 0 -43 -4 -46 -10 c -3 -5 -28 -10 -55 -10 c -27 0 -52 -4 -55 -10 c -4 -6 -80 -10 -196 -10 c -119 0 -189 4 -189 10 c 0 6 -22 10 -49 10 c -28 0 -53 5 -56 10 c -3 6 -19 10 -36 10 c -16 0 -29 5 -29 10 c 0 6 -11 10 -25 10 c -13 0 -40 9 -60 20 c -20 11 -42 20 -49 20 c -7 0 -26 11 -42 25 c -16 14 -35 25 -41 25 c -7 0 -13 5 -13 10 c 0 6 -10 10 -23 10 c -12 0 -29 9 -37 20 c -8 11 -21 20 -28 20 c -8 0 -27 14 -42 30 c -15 17 -33 30 -39 30 c -15 0 -159 147 -166 170 c -4 11 -11 20 -16 20 c -5 0 -9 9 -9 19 c 0 11 -4 23 -10 26 c -7 4 -10 730 -10 2146 c 0 1419 3 2139 10 2139 c 6 0 10 9 10 20 c 0 11 5 20 10 20 c 6 0 10 8 10 19 c 0 24 47 71 71 71 c 11 0 19 5 19 10 c 0 6 37 10 90 10 c 53 0 90 -4 90 -10 c 0 -5 9 -10 20 -10 c 11 0 20 -4 20 -10 c 0 -5 9 -10 19 -10 c 11 0 23 -4 26 -10 c 3 -5 17 -10 30 -10 c 13 0 27 -4 30 -10 c 3 -5 17 -10 29 -10 c 13 0 29 -7 36 -15 c 7 -8 27 -15 46 -15 c 18 0 36 -4 39 -10 c 3 -5 28 -10 54 -10 c 26 0 52 -5 58 -11 c 14 -14 502 -14 517 1 c 5 5 32 10 58 10 c 26 0 48 5 48 10 c 0 6 20 10 44 10 c 26 0 48 6 56 15 c 7 8 25 15 41 15 c 16 0 29 5 29 10 c 0 6 18 10 40 10 c 22 0 40 5 40 10 c 0 6 9 10 20 10 c 11 0 20 5 20 10 c 0 6 16 10 35 10 c 19 0 35 4 35 8 c 0 5 23 15 50 22 c 28 7 50 17 50 22 c 0 4 14 8 30 8 c 17 0 30 5 30 10 c 0 6 9 10 19 10 c 11 0 23 5 26 10 c 3 6 19 10 36 10 c 16 0 29 5 29 10 c 0 6 11 10 24 10 c 14 0 28 5 31 10 c 3 6 13 10 21 10 c 9 0 22 7 30 15 c 9 8 26 15 40 15 c 13 0 24 5 24 10 c 0 6 14 10 30 10 c 17 0 30 5 30 10 c 0 6 14 10 30 10 c 17 0 30 5 30 10 c 0 6 14 10 30 10 c 17 0 30 5 30 10 c 0 6 16 10 35 10 c 19 0 35 5 35 10 c 0 6 14 10 30 10 c 17 0 30 5 30 10 c 0 6 15 10 34 10 c 19 0 38 5 41 10 c 3 6 22 10 41 10 c 19 0 34 5 34 10 c 0 6 15 10 34 10 c 19 0 38 5 41 10 c 3 6 21 10 40 10 c 18 0 35 5 37 11 c 2 6 25 13 51 16 c 26 3 47 10 47 14 c 0 5 18 9 39 9 c 22 0 43 5 46 10 c 3 6 30 10 60 10 c 30 0 57 5 60 10 c 3 6 30 10 60 10 c 30 0 57 5 60 10 c 3 6 52 10 110 10 c 58 0 107 4 110 10 c 3 6 44 10 90 10 c 46 0 87 -4 90 -10 Z M9462 1649 c-30 -32 -31 -36 -29 -115 1 -66 -2 -86 -16 -101 -9 -11 -23 -37 -30 -59 -8 -21 -21 -40 -30 -42 -15 -3 -17 9 -17 96 0 94 -1 101 -30 140 -16 23 -30 46 -30 52 0 5 -10 14 -22 21 -18 10 -24 8 -40 -12 -10 -13 -21 -35 -24 -49 -3 -14 -12 -39 -20 -57 -8 -17 -14 -38 -14 -46 0 -23 -40 -87 -54 -87 -7 0 -21 -9 -31 -20 -10 -11 -26 -20 -36 -20 -10 0 -24 -6 -31 -13 -15 -14 -60 -36 -100 -47 -42 -13 -36 9 17 61 25 24 47 51 50 59 3 8 18 23 35 32 29 17 30 19 30 92 0 41 -3 77 -8 80 -26 16 -172 -44 -202 -84 -3 -4 -22 -10 -42 -14 -21 -4 -38 -10 -38 -14 0 -4 -23 -13 -51 -19 -28 -7 -65 -19 -81 -28 -17 -8 -35 -15 -41 -15 -5 0 -23 -6 -40 -14 -73 -32 -258 -64 -437 -76 -80 -5 -161 -14 -180 -20 -19 -5 -61 -10 -92 -10 -31 0 -60 -4 -63 -10 -3 -5 5 -29 19 -52 14 -24 32 -57 40 -74 10 -24 25 -35 62 -47 89 -29 178 -39 322 -38 111 1 143 -2 139 -12 -2 -6 -40 -20 -85 -29 -44 -9 -90 -21 -101 -27 -25 -14 -124 -14 -137 -1 -5 5 -43 12 -84 16 -41 4 -79 10 -85 14 -5 4 -44 13 -85 19 -41 7 -105 17 -142 23 -51 8 -78 8 -107 0 -21 -7 -49 -12 -63 -12 -13 0 -42 -9 -63 -21 -34 -18 -56 -21 -151 -20 -75 0 -123 6 -147 16 -45 19 -94 19 -149 1 -24 -8 -85 -17 -136 -21 -50 -4 -95 -11 -98 -16 -3 -5 -24 -9 -48 -9 -23 0 -46 -3 -50 -7 -8 -8 70 -42 100 -42 12 -1 35 -8 50 -16 16 -8 37 -15 47 -15 10 0 39 -9 65 -20 26 -10 67 -24 92 -30 46 -11 83 -25 110 -41 8 -5 23 -12 33 -15 9 -4 17 -10 17 -14 0 -7 154 -119 201 -146 10 -6 27 -17 36 -25 55 -44 39 -42 406 -55 103 -3 187 -10 185 -14 -6 -15 -88 -100 -97 -100 -5 0 -14 -7 -21 -15 -7 -8 -23 -15 -37 -15 -13 0 -38 -7 -55 -16 -31 -16 -128 -44 -154 -44 -8 0 -33 -9 -57 -19 -23 -10 -57 -22 -76 -25 -35 -6 -61 -22 -61 -37 0 -5 26 -9 58 -9 31 -1 93 -7 137 -15 44 -8 107 -15 141 -15 33 0 64 -4 70 -10 16 -16 203 -24 254 -10 25 6 59 14 75 16 51 8 169 35 200 46 17 5 185 14 375 18 345 9 465 20 486 46 6 8 26 20 45 28 43 19 197 111 226 136 13 11 37 49 54 85 17 36 36 71 42 78 7 6 17 27 24 45 9 27 9 32 -3 32 -8 0 -24 -8 -34 -18 -11 -10 -39 -28 -63 -40 -36 -18 -54 -21 -108 -16 -65 6 -179 -15 -207 -38 -21 -18 -162 -45 -162 -32 0 8 59 52 119 89 9 6 37 25 64 42 46 32 49 33 157 33 105 0 113 2 173 33 34 17 64 35 67 38 3 3 22 12 43 20 20 7 37 16 37 19 0 4 18 15 39 25 42 18 61 52 61 105 0 15 8 42 18 61 23 45 23 170 0 219 -9 19 -19 53 -23 75 -4 22 -9 53 -12 70 -9 44 -43 84 -90 106 -23 10 -44 23 -47 28 -3 5 -29 21 -58 36 -29 15 -56 32 -59 37 -4 5 -20 -5 -37 -23z M5945 750 c-3 -5 -14 -10 -23 -10 -9 0 -30 -7 -46 -15 -15 -8 -35 -15 -43 -15 -22 0 -116 -32 -138 -47 -11 -7 -31 -13 -45 -13 -14 -1 -36 -7 -50 -15 -14 -8 -34 -14 -44 -15 -10 0 -37 -9 -60 -19 -23 -10 -61 -25 -86 -31 -74 -21 -193 -61 -227 -76 -17 -8 -39 -14 -50 -14 -10 0 -31 -7 -47 -15 -15 -8 -34 -15 -40 -15 -7 0 -31 -9 -54 -20 -22 -11 -50 -20 -62 -20 -37 0 -20 -19 23 -24 81 -11 312 -26 401 -26 50 -1 122 -5 161 -10 73 -9 111 -4 220 30 33 10 92 24 130 30 39 7 74 16 80 21 5 5 18 9 30 9 11 0 38 7 60 15 30 11 100 15 280 16 285 2 437 10 442 24 3 11 -38 29 -97 40 -19 4 -39 11 -45 15 -5 4 -38 14 -72 23 -35 9 -73 23 -85 31 -12 9 -34 16 -48 16 -14 1 -36 7 -50 15 -14 8 -36 14 -50 15 -14 0 -38 8 -55 18 -16 10 -55 24 -85 31 -30 8 -59 17 -65 21 -5 5 -27 11 -48 15 -20 4 -40 11 -43 16 -7 12 -61 11 -69 -1z" stroke="#000" stroke-width="5" fill="#000"/>
</svg>